<?xml version="1.0" encoding="UTF-8"?>
<svg width="635px" height="320px" viewBox="0 0 635 320" version="1.1" xmlns="http://www.w3.org/2000/svg" xmlns:xlink="http://www.w3.org/1999/xlink">
    <!-- Generator: Sketch 48.2 (47327) - http://www.bohemiancoding.com/sketch -->
    <title>Artboard 2</title>
    <desc>Created with Sketch.</desc>
    <defs>
        <rect id="path-1" x="0" y="0" width="1048" height="539"></rect>
    </defs>
    <g id="Welcome" stroke="none" stroke-width="1" fill="none" fill-rule="evenodd">
        <g id="Artboard-2">
            <g id="Path-6" transform="translate(-237.000000, -57.000000)">
                <mask id="mask-2" fill="white">
                    <use xlink:href="#path-1"></use>
                </mask>
                <g id="Mask"></g>
                <path d="M135.387274,96.9642616 C212.290302,55.3807031 299.071514,35.5782789 396.895759,96.9642616 C494.720003,158.350244 529.327619,269.239093 636.854546,242.570322 C743.46121,216.129794 864,262.372746 864,388.176382 C864,456.5 1021,468.5 1004.5,580 C988,691.5 793.426463,623.919023 772.559394,661.915776 C733.53697,732.971533 713.152122,858.775169 636.854546,921.094563 C560.55697,983.413957 365.444849,997.392139 286.235153,965.358805 C207.025456,933.325472 43.3642441,967.106078 -10.2187861,866.929109 C-63.8018163,766.752139 24.7266683,628.473685 -63.8018163,531.330791 C-152.330301,434.187897 -240.858786,270.526686 -152.330301,198.888504 C-63.8018163,127.250322 58.4842461,138.54782 135.387274,96.9642616 Z" fill="#D8D8D8" mask="url(#mask-2)"></path>
            </g>
        </g>
    </g>
</svg>